<?xml version="1.0" encoding="UTF-8"?>
<svg id="Calque_1" data-name="Calque 1" xmlns="http://www.w3.org/2000/svg" viewBox="0 0 1000 1000">
  <defs>
    <style>
      .cls-1 {
        letter-spacing: -.02em;
      }

      .cls-2, .cls-3, .cls-4, .cls-5, .cls-6, .cls-7, .cls-8, .cls-9, .cls-10, .cls-11, .cls-12, .cls-13, .cls-14, .cls-15, .cls-16, .cls-17, .cls-18, .cls-19, .cls-20, .cls-21, .cls-22, .cls-23, .cls-24, .cls-25, .cls-26, .cls-27, .cls-28, .cls-29, .cls-30, .cls-31, .cls-32, .cls-33, .cls-34, .cls-35, .cls-36, .cls-37, .cls-38, .cls-39, .cls-40, .cls-41, .cls-42, .cls-43, .cls-44, .cls-45, .cls-46, .cls-47, .cls-48, .cls-49, .cls-50, .cls-51, .cls-52, .cls-53, .cls-54, .cls-55, .cls-56, .cls-57, .cls-58, .cls-59, .cls-60, .cls-61, .cls-62 {
        font-family: Panamera-Bold, Panamera;
        font-weight: 700;
      }

      .cls-2, .cls-10, .cls-63, .cls-25, .cls-33 {
        fill: #e94a29;
      }

      .cls-2, .cls-18, .cls-19, .cls-27, .cls-29 {
        font-size: 1.6px;
      }

      .cls-64 {
        letter-spacing: -.01em;
      }

      .cls-65 {
        letter-spacing: .02em;
      }

      .cls-3 {
        font-size: 14.72px;
        letter-spacing: -.02em;
      }

      .cls-3, .cls-66, .cls-46 {
        fill: #fff;
      }

      .cls-67 {
        letter-spacing: 0em;
      }

      .cls-68 {
        letter-spacing: -.02em;
      }

      .cls-69 {
        letter-spacing: -.01em;
      }

      .cls-4, .cls-70, .cls-37, .cls-71, .cls-57 {
        fill: #c2da95;
      }

      .cls-4, .cls-30 {
        font-size: 4.29px;
      }

      .cls-72 {
        letter-spacing: -.01em;
      }

      .cls-73 {
        letter-spacing: -.02em;
      }

      .cls-74 {
        letter-spacing: .03em;
      }

      .cls-75, .cls-14, .cls-22, .cls-40 {
        fill: #134c78;
      }

      .cls-76 {
        letter-spacing: .04em;
      }

      .cls-77 {
        letter-spacing: -.02em;
      }

      .cls-5, .cls-8, .cls-13, .cls-78, .cls-42 {
        fill: #cf2467;
      }

      .cls-5, .cls-9, .cls-10, .cls-17, .cls-24, .cls-39, .cls-51, .cls-55, .cls-61 {
        font-size: 2.21px;
      }

      .cls-6, .cls-9, .cls-21, .cls-79, .cls-41 {
        fill: #2a2653;
      }

      .cls-6, .cls-22, .cls-33, .cls-42, .cls-45, .cls-47, .cls-50, .cls-53, .cls-60, .cls-62 {
        font-size: 2.91px;
      }

      .cls-80 {
        letter-spacing: 0em;
      }

      .cls-81 {
        letter-spacing: 0em;
      }

      .cls-82 {
        letter-spacing: -.15em;
      }

      .cls-83 {
        letter-spacing: -.07em;
      }

      .cls-84 {
        letter-spacing: 0em;
      }

      .cls-85 {
        letter-spacing: -.05em;
      }

      .cls-86 {
        letter-spacing: 0em;
      }

      .cls-87 {
        letter-spacing: -.09em;
      }

      .cls-88 {
        letter-spacing: -.13em;
      }

      .cls-7, .cls-16, .cls-29, .cls-89, .cls-43, .cls-45, .cls-55 {
        fill: #49a843;
      }

      .cls-7, .cls-49 {
        font-size: .65px;
      }

      .cls-90 {
        letter-spacing: -.02em;
      }

      .cls-8, .cls-15, .cls-16, .cls-25, .cls-36, .cls-40, .cls-41, .cls-52, .cls-56, .cls-58 {
        font-size: 3.03px;
      }

      .cls-91, .cls-23, .cls-28, .cls-36, .cls-60 {
        fill: #1c663e;
      }

      .cls-11 {
        font-size: 3.89px;
      }

      .cls-11, .cls-12, .cls-92, .cls-93, .cls-32, .cls-34, .cls-35, .cls-44 {
        fill: #003033;
      }

      .cls-94 {
        letter-spacing: 0em;
      }

      .cls-95 {
        letter-spacing: -.04em;
      }

      .cls-96 {
        letter-spacing: 0em;
      }

      .cls-12 {
        font-size: 17.58px;
      }

      .cls-97, .cls-38 {
        fill: #f5f5f5;
      }

      .cls-13, .cls-14, .cls-21, .cls-23, .cls-31 {
        font-size: 1.85px;
      }

      .cls-98 {
        letter-spacing: -.07em;
      }

      .cls-99 {
        letter-spacing: -.05em;
      }

      .cls-100 {
        letter-spacing: -.04em;
      }

      .cls-101 {
        letter-spacing: 0em;
      }

      .cls-102 {
        letter-spacing: -.07em;
      }

      .cls-103 {
        letter-spacing: 0em;
      }

      .cls-104 {
        letter-spacing: .01em;
      }

      .cls-105 {
        letter-spacing: .04em;
      }

      .cls-106 {
        letter-spacing: -.01em;
      }

      .cls-15, .cls-107, .cls-31, .cls-47, .cls-51 {
        fill: #6e2c76;
      }

      .cls-108 {
        letter-spacing: .01em;
      }

      .cls-109 {
        letter-spacing: -.02em;
      }

      .cls-110 {
        letter-spacing: .01em;
      }

      .cls-92 {
        stroke: #000;
        stroke-miterlimit: 10;
        stroke-width: 2px;
      }

      .cls-17, .cls-18, .cls-50, .cls-58, .cls-111 {
        fill: #e1714a;
      }

      .cls-112 {
        letter-spacing: -.06em;
      }

      .cls-113 {
        letter-spacing: -.02em;
      }

      .cls-114 {
        letter-spacing: -.04em;
      }

      .cls-115 {
        letter-spacing: .04em;
      }

      .cls-116 {
        letter-spacing: -.03em;
      }

      .cls-117 {
        letter-spacing: 0em;
      }

      .cls-118 {
        letter-spacing: -.07em;
      }

      .cls-119 {
        letter-spacing: .03em;
      }

      .cls-19, .cls-39, .cls-120, .cls-53, .cls-56 {
        fill: #f0c42f;
      }

      .cls-20 {
        font-size: .63px;
      }

      .cls-20, .cls-49 {
        fill: #e8492a;
      }

      .cls-121 {
        letter-spacing: -.03em;
      }

      .cls-122 {
        letter-spacing: -.07em;
      }

      .cls-123 {
        letter-spacing: 0em;
      }

      .cls-124 {
        letter-spacing: -.02em;
      }

      .cls-125 {
        letter-spacing: 0em;
      }

      .cls-24, .cls-27, .cls-52, .cls-126, .cls-62 {
        fill: #e9e232;
      }

      .cls-127 {
        letter-spacing: -.04em;
      }

      .cls-128 {
        letter-spacing: -.07em;
      }

      .cls-129 {
        letter-spacing: 0em;
      }

      .cls-130 {
        letter-spacing: -.07em;
      }

      .cls-25 {
        letter-spacing: -.02em;
      }

      .cls-131, .cls-61 {
        fill: #114c78;
      }

      .cls-132 {
        letter-spacing: -.01em;
      }

      .cls-26 {
        font-size: 4.42px;
      }

      .cls-26, .cls-133, .cls-30, .cls-48, .cls-59 {
        fill: #083034;
      }

      .cls-134 {
        letter-spacing: 0em;
      }

      .cls-28 {
        font-size: 1.78px;
      }

      .cls-70 {
        font-family: Panamera-Regular, Panamera;
        font-size: 11px;
      }

      .cls-135 {
        letter-spacing: -.02em;
      }

      .cls-136 {
        letter-spacing: 0em;
      }

      .cls-137 {
        letter-spacing: 0em;
      }

      .cls-138 {
        letter-spacing: .02em;
      }

      .cls-139 {
        letter-spacing: -.03em;
      }

      .cls-140 {
        letter-spacing: -.08em;
      }

      .cls-141 {
        letter-spacing: -.02em;
      }

      .cls-142 {
        letter-spacing: -.03em;
      }

      .cls-143 {
        letter-spacing: -.04em;
      }

      .cls-144 {
        letter-spacing: -.01em;
      }

      .cls-145 {
        letter-spacing: -.09em;
      }

      .cls-146 {
        letter-spacing: .02em;
      }

      .cls-147 {
        letter-spacing: -.04em;
      }

      .cls-148 {
        letter-spacing: -.04em;
      }

      .cls-149 {
        letter-spacing: 0em;
      }

      .cls-150 {
        letter-spacing: 0em;
      }

      .cls-151 {
        letter-spacing: -.01em;
      }

      .cls-152 {
        letter-spacing: 0em;
      }

      .cls-153 {
        letter-spacing: .01em;
      }

      .cls-154 {
        letter-spacing: -.02em;
      }

      .cls-155 {
        letter-spacing: -.01em;
      }

      .cls-32 {
        font-size: 29.58px;
      }

      .cls-33 {
        letter-spacing: -.02em;
      }

      .cls-34 {
        font-size: 3.86px;
      }

      .cls-35 {
        font-size: 22.71px;
      }

      .cls-156 {
        letter-spacing: .02em;
      }

      .cls-157 {
        letter-spacing: -.02em;
      }

      .cls-158 {
        letter-spacing: 0em;
      }

      .cls-159 {
        letter-spacing: -.08em;
      }

      .cls-160 {
        letter-spacing: -.02em;
      }

      .cls-161 {
        letter-spacing: .02em;
      }

      .cls-162 {
        letter-spacing: 0em;
      }

      .cls-163 {
        letter-spacing: -.04em;
      }

      .cls-164 {
        letter-spacing: 0em;
      }

      .cls-165 {
        letter-spacing: 0em;
      }

      .cls-37 {
        font-size: 6.97px;
      }

      .cls-166 {
        letter-spacing: -.04em;
      }

      .cls-167 {
        letter-spacing: -.01em;
      }

      .cls-38 {
        font-size: 8.92px;
      }

      .cls-168 {
        letter-spacing: -.02em;
      }

      .cls-169 {
        letter-spacing: -.01em;
      }

      .cls-170 {
        letter-spacing: -.09em;
      }

      .cls-171 {
        letter-spacing: -.01em;
      }

      .cls-172 {
        letter-spacing: -.02em;
      }

      .cls-173 {
        letter-spacing: -.07em;
      }

      .cls-174 {
        letter-spacing: -.05em;
      }

      .cls-175 {
        letter-spacing: 0em;
      }

      .cls-176 {
        letter-spacing: -.02em;
      }

      .cls-177 {
        letter-spacing: -.02em;
      }

      .cls-178 {
        letter-spacing: -.03em;
      }

      .cls-179 {
        letter-spacing: .02em;
      }

      .cls-180 {
        letter-spacing: 0em;
      }

      .cls-181 {
        letter-spacing: -.02em;
      }

      .cls-43 {
        font-size: .86px;
      }

      .cls-182 {
        letter-spacing: -.01em;
      }

      .cls-183 {
        letter-spacing: 0em;
      }

      .cls-184 {
        letter-spacing: .01em;
      }

      .cls-185 {
        letter-spacing: .03em;
      }

      .cls-186 {
        letter-spacing: 0em;
      }

      .cls-187 {
        letter-spacing: -.06em;
      }

      .cls-44 {
        font-size: 7.65px;
      }

      .cls-188 {
        letter-spacing: 0em;
      }

      .cls-46 {
        font-size: 15.66px;
      }

      .cls-189 {
        letter-spacing: -.05em;
      }

      .cls-190 {
        letter-spacing: -.01em;
      }

      .cls-191 {
        letter-spacing: -.01em;
      }

      .cls-48 {
        font-size: 6.25px;
      }

      .cls-192 {
        letter-spacing: 0em;
      }

      .cls-193 {
        letter-spacing: -.02em;
      }

      .cls-194 {
        letter-spacing: -.04em;
      }

      .cls-195 {
        letter-spacing: 0em;
      }

      .cls-196 {
        letter-spacing: -.01em;
      }

      .cls-197 {
        letter-spacing: -.05em;
      }

      .cls-198 {
        letter-spacing: .01em;
      }

      .cls-199 {
        letter-spacing: -.01em;
      }

      .cls-200 {
        letter-spacing: -.09em;
      }

      .cls-201 {
        letter-spacing: -.02em;
      }

      .cls-202 {
        letter-spacing: -.03em;
      }

      .cls-203 {
        letter-spacing: -.06em;
      }

      .cls-204 {
        letter-spacing: -.01em;
      }

      .cls-205 {
        letter-spacing: -.09em;
      }

      .cls-206 {
        letter-spacing: -.04em;
      }

      .cls-207 {
        letter-spacing: 0em;
      }

      .cls-208 {
        letter-spacing: -.02em;
      }

      .cls-209 {
        letter-spacing: 0em;
      }

      .cls-210 {
        letter-spacing: -.06em;
      }

      .cls-54 {
        fill: #07557b;
        font-size: .81px;
      }

      .cls-211 {
        letter-spacing: 0em;
      }

      .cls-212 {
        letter-spacing: -.07em;
      }

      .cls-213 {
        letter-spacing: .02em;
      }

      .cls-57 {
        font-size: 19.98px;
      }

      .cls-214 {
        letter-spacing: 0em;
      }

      .cls-215 {
        letter-spacing: -.02em;
      }

      .cls-216 {
        letter-spacing: -.03em;
      }

      .cls-217 {
        letter-spacing: 0em;
      }

      .cls-59 {
        font-size: 1.53px;
      }

      .cls-218 {
        letter-spacing: -.09em;
      }

      .cls-219 {
        letter-spacing: -.01em;
      }

      .cls-220 {
        letter-spacing: -.02em;
      }

      .cls-221 {
        letter-spacing: -.04em;
      }

      .cls-222 {
        letter-spacing: -.07em;
      }

      .cls-223 {
        letter-spacing: -.11em;
      }

      .cls-224 {
        letter-spacing: -.04em;
      }
    </style>
  </defs>
  <g>
    <rect class="cls-93" x="491.39" y="317.18" width="124.52" height="424.2"/>
    <rect class="cls-66" x="491.24" y="423.14" width="124.14" height="185.47"/>
    <g>
      <polygon class="cls-93" points="507.49 435.9 508.08 435.9 508.1 435.92 508.1 442.08 507.47 442.08 507.47 435.93 507.49 435.9"/>
      <polygon class="cls-93" points="507.49 435.9 508.08 435.9 508.1 435.92 510.35 438.35 509.89 438.78 508.1 436.85 507.78 436.51 507.47 436.85 505.68 438.78 505.22 438.35 507.47 435.93 507.49 435.9"/>
    </g>
    <rect class="cls-63" x="549.97" y="607.65" width="65.1" height="73.6"/>
    <rect class="cls-111" x="491.31" y="607.78" width="58.95" height="73.6"/>
    <text class="cls-38" transform="translate(498.75 651.21)"><tspan x="0" y="0">Stockfeld</tspan></text>
    <text class="cls-38" transform="translate(559.74 651.37)"><tspan x="0" y="0">Plobsheim</tspan></text>
    <g>
      <rect class="cls-97" x="512.79" y="661.08" width="3.94" height=".48"/>
      <path class="cls-97" d="M514.55,665.63c-.79-.7-.69-2.13-.69-2.27v-.13c-.44,1.46-1.02,1.7-1.15,1.73l-.14-.54s.24-.1,.23-.1c.81-.4,.99-3.23,.98-4.48l-.03-1.18,.55-.04s.05,.5,.03,1.25l.08,3.48c.04,.41-.06,1.98,1.24,2.13l.14,.5s-.65,.04-1.25-.37Z"/>
      <path class="cls-97" d="M520.63,666.04c-.86,.27-1.34-.17-1.31-.91l.03-3.05h-1.2c-.08,.53-.15,1.25-.39,2.06-.31,1.06-.65,1.48-1.22,1.68-.51,.17-.64,.18-.94,.17l.02-.5c.07,0,1.24,.15,1.61-1.47,.41-1.84,.51-3.07,.51-3.08l.54,.04s-.02,.22-.06,.56h1.67l-.03,3.63s-.01,.24,.12,.35c.1,.08,.3,.08,.57,0l.08,.52Z"/>
      <path class="cls-97" d="M512.83,664.37c-.01-.68-.25-1.34-.68-1.87-.02-.03-.05-.06-.07-.08-.07-.08-.14-.16-.18-.24-.05-.09-.08-.3-.06-.37,0,0,0,0,0,0,.05-.15,.11-.28,.21-.35l-.26-.41c-.22,.14-.33,.36-.41,.59,0,.02-.02,.05-.02,.07-.05,.16-.1,.32-.14,.47-.09,.3-.17,.59-.29,.86-.2,.43-.46,.84-.71,1.25-.03,.05-.06,.09-.09,.14-.04-.32,0-.64,.03-.81l-.47-.09c-.06,.29-.13,.88,.08,1.42-.09,.12-.17,.22-.27,.29-.3,.21-.49,.25-.59,.24-.15,0-.35-.18-.42-.35l-.44,.18c.12,.3,.47,.62,.84,.65,.02,0,.03,0,.05,0,.25,0,.53-.11,.85-.33,.1-.07,.18-.15,.26-.24,.03,.03,.06,.06,.09,.09,.16,.16,.64,.51,1,.55,.04,0,.07,0,.11,0,.33,0,.59-.13,.78-.25,.39-.24,.5-.42,.63-.64h0c.12-.21,.18-.46,.17-.78Zm-.58,.52h0c-.12,.21-.18,.3-.47,.48-.17,.11-.36,.2-.6,.18-.17-.02-.53-.24-.71-.41-.04-.04-.08-.09-.11-.13,.09-.15,.19-.31,.28-.46,.26-.41,.52-.84,.73-1.3h0c.09-.22,.17-.44,.23-.66,.04,.05,.07,.09,.11,.13,.02,.03,.04,.05,.07,.08,.36,.44,.57,1,.57,1.57,0,.23-.03,.39-.1,.52Z"/>
      <path class="cls-97" d="M528.48,664.44c-.01-.68-.25-1.34-.68-1.87-.02-.03-.05-.06-.07-.08-.07-.08-.14-.16-.18-.24-.05-.09-.08-.3-.06-.37,0,0,0,0,0,0,.05-.15,.11-.28,.21-.35l-.26-.41c-.22,.14-.33,.36-.41,.59,0,.02-.02,.05-.02,.07-.05,.16-.1,.32-.14,.47-.09,.3-.17,.59-.29,.86-.2,.43-.46,.84-.71,1.25-.03,.05-.06,.09-.09,.14-.04-.32,0-.64,.03-.81l-.47-.09c-.06,.29-.13,.88,.08,1.42-.09,.12-.17,.22-.27,.29-.3,.21-.49,.25-.59,.24-.15,0-.35-.18-.42-.35l-.44,.18c.12,.3,.47,.62,.84,.65,.02,0,.03,0,.05,0,.25,0,.53-.11,.85-.33,.1-.07,.18-.15,.26-.24,.03,.03,.06,.06,.09,.09,.16,.16,.64,.51,1,.55,.04,0,.07,0,.11,0,.33,0,.59-.13,.78-.25,.39-.24,.5-.42,.63-.64h0c.12-.21,.18-.46,.17-.78Zm-.58,.52h0c-.12,.21-.18,.3-.47,.48-.17,.11-.36,.2-.6,.18-.17-.02-.53-.24-.71-.41-.04-.04-.08-.09-.11-.13,.09-.15,.19-.31,.28-.46,.26-.41,.52-.84,.73-1.3h0c.09-.22,.17-.44,.23-.66,.04,.05,.07,.09,.11,.13,.02,.03,.04,.05,.07,.08,.36,.44,.57,1,.57,1.57,0,.23-.03,.39-.1,.52Z"/>
      <path class="cls-97" d="M524.09,665.16c-.13-.2-.18-.45-.14-.69,.04-.21,.14-.41,.25-.62,.1-.19,.2-.38,.26-.6,.16-.56,.01-1.17-.38-1.55-.42-.42-1.11-.51-1.6-.23-.21,.13-.37,.3-.52,.47-.03,.04-.06,.07-.1,.11-.13,.14-.3,.31-.5,.34l.08,.47c.34-.06,.59-.29,.77-.49,.03-.04,.07-.08,.1-.11,.13-.15,.25-.29,.4-.37,.3-.18,.75-.11,1.01,.15,.26,.26,.36,.69,.25,1.08,0,0,0,.01,0,.02-.07,.08-.35,.17-.44,.2h-.03c-.11,.05-.24,.07-.37,.09h-.05c-.13,.03-.24,.05-.34,.06-.11,.02-.22,.03-.35,.06-.25,.04-.52,.09-.77,.24h0c-.48,.33-.75,1.02-.62,1.59h0c.09,.34,.31,.61,.6,.73,.12,.05,.24,.07,.37,.07,.19,0,.38-.05,.56-.16h0c.32-.19,.68-.55,.97-.91,.04,.11,.09,.22,.15,.32,.19,.3,.5,.53,.85,.62l.13-.46c-.23-.06-.44-.21-.57-.42Zm-.6-.81c-.28,.44-.77,1.01-1.17,1.25-.17,.1-.35,.12-.5,.06-.15-.06-.27-.2-.32-.4-.09-.37,.1-.85,.42-1.07,.16-.1,.38-.14,.58-.17,.13-.02,.24-.04,.34-.06,.11-.02,.22-.03,.35-.06h.05c.14-.03,.29-.06,.44-.11h0c-.09,.17-.16,.35-.2,.55Z"/>
    </g>
    <g>
      <path class="cls-71" d="M571.69,354.3c0-9.67-8.29-17.51-18.52-17.51-3.25,0-6.31,.79-8.96,2.18l1.58,3.65c3.83,7.44,11.37,16.86,16.17,22.52-2.43,1.76-5.48,2.81-8.78,2.81-7.98,0-14.45-6.11-14.45-13.66,0-3.55,1.43-6.78,3.78-9.21l-2.94-2.66c-3.05,3.12-4.91,7.29-4.91,11.87,0,9.67,8.29,17.51,18.52,17.51,4.28,0,8.21-1.37,11.35-3.67,.98,1.12,1.61,1.82,1.74,1.96l2.73-2.47s-.68-.75-1.73-1.96c2.77-3.06,4.43-7.03,4.43-11.37Zm-7.05,8.31c-4.65-5.51-11.84-14.5-15.46-21.44,1.27-.34,2.61-.53,3.99-.53,7.98,0,14.45,6.11,14.45,13.66,0,3.13-1.11,6.01-2.98,8.31Z"/>
      <g>
        <rect class="cls-71" x="558.17" y="389.12" width="10.81" height="1.32"/>
        <path class="cls-71" d="M562.99,401.61c-2.18-1.92-1.9-5.84-1.89-6.22v-.34c-1.2,4-2.8,4.65-3.15,4.74l-.4-1.47s.65-.27,.63-.26c2.23-1.1,2.71-8.87,2.7-12.28l-.08-3.23,1.52-.1c.01,.1,.14,1.38,.08,3.44l.23,9.53c.1,1.14-.17,5.42,3.39,5.83l.4,1.38s-1.77,.11-3.42-1.01Z"/>
        <path class="cls-71" d="M523.18,402.61c-.57,0-1.13-.09-1.67-.26-1.24-.4-2.37-1.27-3.27-2.54-.31-.44-.57-.84-.76-1.22-4.23,1.77-4.07,1.8-4.09,1.81l.18-1.3c.08-.06,2.64-1.19,3.46-1.76-.2-.98-.36-2.01,.1-3.38,.76-2.28,3.1-3.79,6.13-3.62,2.84,.15,4.46,2.74,4.51,2.88l.3,.42-2.37,1.19c-2.31,1.15-4.88,2.43-6.99,3.27,.15,.29,.35,.61,.61,.96,1.15,1.62,3.23,3.2,6.61,1.51,3.21-1.6,4.05-6.58,4.06-6.63l1.3,.21c-.04,.23-.95,5.69-4.77,7.6-1.16,.58-2.28,.87-3.34,.87Zm-.47-10.97c-1.59,0-3.68,.78-4.33,2.72-.34,1.01-.16,1.78-.09,2.48,1.98-.79,5.28-2.41,7.73-3.79,0,0-1.16-1.41-3.32-1.4Z"/>
        <path class="cls-71" d="M531.15,400.42c-.51-1.47-1.24-5.74-1.51-9.06-.59-7.49,.48-8.79,.83-9.04,.23-.16,.83-.47,1.59,.22,1.33,1.2,1.63,4.35,.88,8.3-.51,2.69-1.31,5.06-1.42,5.36,.27,1.72,.57,3.1,.83,3.7,.12,.27,.36,.73,.66,.74,.52,.03,1.5-.95,2.18-2.18l1.15,.64c-.27,.48-1.67,2.86-3.32,2.86,0,0-1.41,.05-1.88-1.53Zm-.34-14.06c.04,1.33,0,3.08,.16,5.04,.04,.52,.09,1.04,.14,1.56,.19-.73,.38-1.54,.54-2.39,.63-3.37,.63-6.77-.16-6.96,0,0-.76-.3-.68,2.75Z"/>
        <path class="cls-71" d="M548.1,396.4c0-3.46-2.97-6.26-6.62-6.26-1.16,0-2.25,.28-3.2,.78l.56,1.31c1.37,2.66,4.07,6.03,5.78,8.05-.87,.63-1.96,1-3.14,1-2.85,0-5.17-2.19-5.17-4.88,0-1.27,.51-2.42,1.35-3.29l-1.05-.95c-1.09,1.12-1.76,2.61-1.76,4.24,0,3.46,2.97,6.26,6.62,6.26,1.53,0,2.94-.49,4.06-1.31,.35,.4,.58,.65,.62,.7l.98-.88s-.24-.27-.62-.7c.99-1.09,1.59-2.51,1.59-4.06Zm-2.52,2.97c-1.66-1.97-4.23-5.18-5.53-7.67,.45-.12,.93-.19,1.43-.19,2.85,0,5.17,2.19,5.17,4.88,0,1.12-.4,2.15-1.07,2.97Z"/>
        <path class="cls-71" d="M579.66,402.73c-2.36,.74-3.67-.46-3.58-2.49l.08-8.36h-3.28c-.22,1.46-.41,3.42-1.07,5.65-.85,2.89-1.79,4.05-3.35,4.61-1.41,.47-1.75,.49-2.57,.46l.06-1.37c.2,.01,3.41,.42,4.42-4.03,1.14-5.04,1.39-8.41,1.4-8.44l1.47,.11c0,.05-.05,.59-.16,1.53h4.57l-.09,9.94s-.04,.67,.32,.96c.28,.22,.83,.23,1.56,.01l.23,1.42Z"/>
        <path class="cls-71" d="M558.28,398.15c-.03-1.86-.69-3.68-1.88-5.12-.06-.08-.13-.15-.2-.23-.19-.22-.37-.44-.49-.66-.14-.25-.22-.82-.17-1.01,0,0,0-.01,0-.02,.14-.4,.31-.77,.59-.95l-.71-1.11c-.6,.38-.91,1-1.13,1.63-.02,.06-.04,.12-.06,.19-.14,.43-.27,.87-.39,1.3-.24,.83-.46,1.62-.79,2.37-.55,1.18-1.25,2.31-1.93,3.42-.08,.12-.15,.25-.23,.38-.12-.88,0-1.75,.09-2.23l-1.29-.25c-.15,.78-.36,2.42,.21,3.89-.24,.32-.47,.61-.75,.81-.82,.59-1.34,.69-1.62,.67-.4-.02-.97-.49-1.16-.96l-1.22,.5c.34,.82,1.29,1.71,2.3,1.77,.05,0,.09,0,.14,0,.69,0,1.45-.3,2.32-.92,.27-.2,.5-.42,.7-.66,.08,.09,.16,.17,.24,.26,.44,.43,1.75,1.41,2.74,1.5,.1,0,.2,.01,.3,.01,.9,0,1.62-.36,2.15-.69,1.08-.66,1.37-1.14,1.73-1.75v-.02c.35-.56,.5-1.23,.48-2.12Zm-1.6,1.44v.02c-.35,.56-.5,.81-1.3,1.3-.47,.29-1,.55-1.65,.49-.46-.04-1.47-.67-1.94-1.13-.12-.11-.22-.23-.31-.36,.25-.42,.52-.85,.77-1.26,.71-1.14,1.43-2.31,2.01-3.56h0c.25-.6,.45-1.2,.63-1.8,.1,.13,.2,.25,.3,.37,.06,.07,.12,.14,.18,.21,.99,1.21,1.55,2.74,1.58,4.3,0,.63-.08,1.08-.28,1.42Z"/>
        <path class="cls-71" d="M601.18,398.35c-.03-1.86-.69-3.68-1.88-5.12-.06-.08-.13-.15-.2-.23-.19-.22-.37-.44-.49-.66-.14-.25-.22-.82-.17-1.01,0,0,0-.01,0-.02,.14-.4,.31-.77,.59-.95l-.71-1.11c-.6,.38-.91,1-1.13,1.63-.02,.06-.04,.12-.06,.19-.14,.43-.27,.87-.39,1.3-.24,.83-.46,1.62-.79,2.37-.55,1.18-1.25,2.31-1.93,3.42-.08,.12-.15,.25-.23,.38-.12-.88,0-1.75,.09-2.23l-1.29-.25c-.15,.78-.36,2.42,.21,3.89-.24,.32-.47,.61-.75,.81-.82,.59-1.34,.69-1.62,.67-.4-.02-.97-.49-1.16-.96l-1.22,.5c.34,.82,1.29,1.71,2.3,1.77,.05,0,.09,0,.14,0,.69,0,1.45-.3,2.32-.92,.27-.2,.5-.42,.7-.66,.08,.09,.16,.17,.24,.26,.44,.43,1.75,1.41,2.74,1.5,.1,0,.2,.01,.3,.01,.9,0,1.62-.36,2.15-.69,1.08-.66,1.37-1.14,1.73-1.75v-.02c.35-.56,.5-1.23,.48-2.12Zm-1.6,1.44v.02c-.35,.56-.5,.81-1.3,1.3-.47,.29-1,.55-1.65,.49-.46-.04-1.47-.67-1.94-1.13-.12-.11-.22-.23-.31-.36,.25-.42,.52-.85,.77-1.26,.71-1.14,1.43-2.31,2.01-3.56h0c.25-.6,.45-1.2,.63-1.8,.1,.13,.2,.25,.3,.37,.06,.07,.12,.14,.18,.21,.99,1.21,1.55,2.74,1.58,4.3,0,.63-.08,1.08-.28,1.42Z"/>
        <path class="cls-71" d="M589.15,400.3c-.35-.55-.49-1.24-.38-1.89,.1-.57,.38-1.12,.69-1.7,.27-.52,.55-1.05,.72-1.65,.44-1.53,.03-3.2-1.03-4.25-1.16-1.14-3.04-1.41-4.37-.62-.58,.34-1.01,.83-1.42,1.29-.09,.1-.17,.2-.26,.29-.35,.39-.83,.84-1.36,.93l.21,1.3c.94-.15,1.63-.8,2.12-1.34,.09-.1,.18-.21,.28-.31,.36-.41,.69-.79,1.1-1.03,.83-.49,2.05-.3,2.78,.42,.72,.71,.99,1.9,.69,2.95,0,.02,0,.03-.01,.04-.2,.22-.95,.47-1.19,.55l-.08,.03c-.31,.1-.65,.16-1.01,.22l-.14,.02c-.35,.06-.65,.1-.94,.15-.3,.05-.6,.09-.95,.15-.67,.11-1.44,.24-2.11,.67h-.01c-1.32,.9-2.06,2.81-1.69,4.35v.02c.25,.92,.85,1.64,1.65,1.97,.32,.13,.66,.2,1.01,.2,.52,0,1.05-.14,1.54-.43h0c.88-.53,1.85-1.5,2.66-2.5,.1,.31,.24,.6,.41,.87,.53,.83,1.37,1.45,2.32,1.71l.34-1.27c-.63-.17-1.2-.59-1.55-1.14Zm-1.65-2.23c-.77,1.22-2.11,2.78-3.2,3.43-.47,.27-.96,.33-1.38,.15-.42-.17-.73-.56-.87-1.09-.24-1.02,.27-2.34,1.15-2.93,.44-.28,1.03-.38,1.6-.47,.35-.06,.65-.1,.94-.15,.3-.05,.6-.09,.95-.15l.14-.02c.4-.06,.81-.13,1.21-.27h.01c-.23,.47-.45,.96-.56,1.5Z"/>
        <polygon class="cls-71" points="518.44 390.06 519.3 390.85 523.31 387.89 522 386.9 518.44 390.06"/>
        <path class="cls-71" d="M521.69,381.87c-3.89,4.18-5.84,9.58-6.79,13.38-1.04,4.14-1.15,7.33-1.15,7.36l-1.25,.2-7.35-20.02,1.19-.49,6.39,17.41c.17-1.28,.45-2.91,.91-4.74,.63-2.51,1.46-4.87,2.47-7.01,1.27-2.68,2.83-5.03,4.63-6.97l.94,.88Z"/>
      </g>
    </g>
    <path class="cls-71" d="M522.04,726.89c-7.69,0-13.95-6.26-13.95-13.95s6.26-13.95,13.95-13.95,13.95,6.26,13.95,13.95-6.26,13.95-13.95,13.95Zm0-27.16c-7.28,0-13.21,5.93-13.21,13.21s5.93,13.21,13.21,13.21,13.21-5.93,13.21-13.21-5.93-13.21-13.21-13.21Z"/>
    <text class="cls-57" transform="translate(517.46 720.1)"><tspan x="0" y="0">1</tspan></text>
    <text class="cls-70" transform="translate(540.41 717.31)"><tspan class="cls-130" x="0" y="0">R</tspan><tspan class="cls-109" x="5.99" y="0">O</tspan><tspan x="14.55" y="0">C</tspan><tspan class="cls-160" x="22.5" y="0">A</tspan><tspan class="cls-86" x="30.65" y="0">D</tspan><tspan class="cls-112" x="37.49" y="0">E</tspan><tspan x="43.79" y="0">S 1</tspan></text>
    <text class="cls-46" transform="translate(512.16 629.58) scale(1.23 1)"><tspan x="0" y="0">E</tspan></text>
    <text class="cls-3" transform="translate(577.45 629.18)"><tspan x="0" y="0">F</tspan></text>
    <g>
      <rect class="cls-97" x="577.6" y="660.28" width="3.55" height=".43"/>
      <path class="cls-97" d="M579.18,664.38c-.71-.63-.62-1.92-.62-2.04v-.11c-.39,1.31-.92,1.53-1.04,1.56l-.13-.48s.21-.09,.21-.09c.73-.36,.89-2.91,.89-4.03l-.03-1.06,.5-.03s.05,.45,.03,1.13l.07,3.13c.03,.37-.05,1.78,1.11,1.91l.13,.45s-.58,.04-1.12-.33Z"/>
      <path class="cls-97" d="M584.65,664.74c-.78,.24-1.2-.15-1.18-.82l.02-2.75h-1.08c-.07,.48-.14,1.12-.35,1.86-.28,.95-.59,1.33-1.1,1.51-.46,.16-.58,.16-.84,.15l.02-.45c.07,0,1.12,.14,1.45-1.32,.37-1.65,.46-2.76,.46-2.77l.48,.04s-.01,.19-.05,.5h1.5l-.03,3.26s-.01,.22,.1,.31c.09,.07,.27,.07,.51,0l.08,.47Z"/>
      <path class="cls-97" d="M577.63,663.24c0-.61-.23-1.21-.62-1.68-.02-.03-.04-.05-.06-.08-.06-.07-.12-.14-.16-.22-.04-.08-.07-.27-.05-.33,0,0,0,0,0,0,.05-.13,.1-.25,.19-.31l-.23-.37c-.2,.13-.3,.33-.37,.54,0,.02-.01,.04-.02,.06-.05,.14-.09,.29-.13,.43-.08,.27-.15,.53-.26,.78-.18,.39-.41,.76-.64,1.12-.03,.04-.05,.08-.08,.12-.04-.29,0-.58,.03-.73l-.42-.08c-.05,.26-.12,.8,.07,1.28-.08,.1-.15,.2-.25,.26-.27,.19-.44,.23-.53,.22-.13,0-.32-.16-.38-.32l-.4,.17c.11,.27,.43,.56,.76,.58,.02,0,.03,0,.05,0,.23,0,.48-.1,.76-.3,.09-.06,.16-.14,.23-.22,.02,.03,.05,.06,.08,.08,.15,.14,.58,.46,.9,.49,.03,0,.07,0,.1,0,.29,0,.53-.12,.71-.23,.35-.22,.45-.37,.57-.57h0c.11-.19,.16-.41,.15-.7Zm-.53,.47h0c-.11,.19-.16,.27-.42,.43-.15,.1-.33,.18-.54,.16-.15-.01-.48-.22-.64-.37-.04-.04-.07-.08-.1-.12,.08-.14,.17-.28,.25-.41,.23-.37,.47-.76,.66-1.17h0c.08-.2,.15-.39,.21-.59,.03,.04,.07,.08,.1,.12,.02,.02,.04,.05,.06,.07,.33,.4,.51,.9,.52,1.41,0,.21-.03,.35-.09,.47Z"/>
      <path class="cls-97" d="M591.72,663.31c0-.61-.23-1.21-.62-1.68-.02-.03-.04-.05-.06-.08-.06-.07-.12-.14-.16-.22-.04-.08-.07-.27-.05-.33,0,0,0,0,0,0,.05-.13,.1-.25,.19-.31l-.23-.37c-.2,.13-.3,.33-.37,.54,0,.02-.01,.04-.02,.06-.05,.14-.09,.29-.13,.43-.08,.27-.15,.53-.26,.78-.18,.39-.41,.76-.64,1.12-.03,.04-.05,.08-.08,.12-.04-.29,0-.58,.03-.73l-.42-.08c-.05,.26-.12,.8,.07,1.28-.08,.1-.15,.2-.25,.26-.27,.19-.44,.23-.53,.22-.13,0-.32-.16-.38-.32l-.4,.17c.11,.27,.43,.56,.76,.58,.02,0,.03,0,.05,0,.23,0,.48-.1,.76-.3,.09-.06,.16-.14,.23-.22,.02,.03,.05,.06,.08,.08,.15,.14,.58,.46,.9,.49,.03,0,.07,0,.1,0,.29,0,.53-.12,.71-.23,.35-.22,.45-.37,.57-.57h0c.11-.19,.16-.41,.15-.7Zm-.53,.47h0c-.11,.19-.16,.27-.42,.43-.15,.1-.33,.18-.54,.16-.15-.01-.48-.22-.64-.37-.04-.04-.07-.08-.1-.12,.08-.14,.17-.28,.25-.41,.23-.37,.47-.76,.66-1.17h0c.08-.2,.15-.39,.21-.59,.03,.04,.07,.08,.1,.12,.02,.02,.04,.05,.06,.07,.33,.4,.51,.9,.52,1.41,0,.21-.03,.35-.09,.47Z"/>
      <path class="cls-97" d="M587.77,663.95c-.12-.18-.16-.41-.12-.62,.03-.19,.13-.37,.23-.56,.09-.17,.18-.35,.24-.54,.14-.5,.01-1.05-.34-1.4-.38-.38-1-.46-1.44-.2-.19,.11-.33,.27-.47,.42-.03,.03-.06,.06-.09,.1-.12,.13-.27,.28-.45,.3l.07,.43c.31-.05,.53-.26,.7-.44,.03-.03,.06-.07,.09-.1,.12-.13,.23-.26,.36-.34,.27-.16,.67-.1,.91,.14,.24,.23,.33,.62,.23,.97,0,0,0,0,0,.01-.07,.07-.31,.15-.39,.18h-.03c-.1,.04-.21,.06-.33,.08h-.05c-.12,.03-.21,.04-.31,.06-.1,.02-.2,.03-.31,.05-.22,.04-.47,.08-.69,.22h0c-.43,.3-.68,.92-.56,1.43h0c.08,.31,.28,.54,.54,.65,.1,.04,.22,.06,.33,.06,.17,0,.34-.05,.51-.14h0c.29-.17,.61-.49,.87-.82,.03,.1,.08,.2,.14,.29,.17,.27,.45,.48,.76,.56l.11-.42c-.21-.06-.39-.19-.51-.37Zm-.54-.73c-.25,.4-.69,.91-1.05,1.13-.15,.09-.32,.11-.45,.05-.14-.06-.24-.18-.29-.36-.08-.34,.09-.77,.38-.96,.15-.09,.34-.12,.53-.16,.11-.02,.21-.03,.31-.05,.1-.02,.2-.03,.31-.05h.05c.13-.03,.26-.05,.4-.09h0c-.08,.15-.15,.31-.18,.49Z"/>
    </g>
    <text class="cls-44" transform="translate(505.21 448.11)"><tspan x="0" y="0">N</tspan></text>
    <g>
      <rect class="cls-78" x="575.76" y="498.89" width=".77" height="33.88" transform="translate(-197.12 525.11) rotate(-42.53)"/>
      <path class="cls-107" d="M601.59,500.2l-17.35-.55,.06-.43c.35-2.33,.06-4.88-.08-5.88l-16.96,5.38-.23-.73,17.8-5.65,.08,.43c.02,.13,.57,3.17,.21,6.13l16.5,.52-.02,.77Z"/>
      <path class="cls-111" d="M552.74,534.95l-.76-.11,1.41-9.95c-2.82-.24-7.29-1.8-7.49-1.87l-.48-.17,11.61-16.21,.62,.45-11.01,15.38c1.32,.44,5.04,1.62,7.2,1.69h.43s-1.53,10.79-1.53,10.79Z"/>
      <path class="cls-120" d="M527.3,518.48l-28.97-9.34,.23-.73,28.7,9.25,7.04-2.92c-1.14-1.17-2.34-3.42-2.39-3.52l-.17-.33,15.46-8.81,.38,.67-14.81,8.44c.44,.78,1.59,2.72,2.47,3.37l.55,.4-8.49,3.52Z"/>
      <path class="cls-63" d="M502.2,537.96l-.46-.61,25.65-19.07,7.21-2.99c-1.14-1.17-2.34-3.42-2.39-3.52l-.17-.33,15.46-8.81,.38,.67-14.81,8.44c.44,.78,1.59,2.72,2.47,3.37l.55,.4-8.31,3.45-25.58,19.01Z"/>
      <path class="cls-89" d="M545.45,493.53l-5.48-6.1-6.17-7.91c-.93,1.61-3.85,6.75-4.35,8.68l-.15,.59-14.4-12.27,.5-.58,13.5,11.49c.98-2.74,4.38-8.53,4.53-8.79l.29-.49,6.85,8.78,5.47,6.08-.57,.51Z"/>
      <polygon class="cls-126" points="528.01 500.85 514.28 497.36 514.47 496.61 527.86 500.02 542.93 489.5 545.84 492.99 545.25 493.48 542.8 490.53 528.01 500.85"/>
      <g>
        <rect class="cls-126" x="539.42" y="486.52" width=".46" height=".77" transform="translate(-180.4 586.02) rotate(-49.9)"/>
        <path class="cls-126" d="M529.55,499.5l-.59-.49,.57-.68,.59,.49-.57,.68Zm1.14-1.35l-.59-.49,.57-.68,.59,.49-.57,.68Zm1.14-1.35l-.59-.49,.57-.68,.59,.49-.57,.68Zm1.14-1.35l-.59-.49,.57-.68,.59,.49-.57,.68Zm1.14-1.35l-.59-.49,.57-.68,.59,.49-.57,.68Zm1.14-1.35l-.59-.49,.57-.68,.59,.49-.57,.68Zm1.14-1.35l-.59-.49,.57-.68,.59,.49-.57,.68Zm1.14-1.35l-.59-.49,.57-.68,.59,.49-.57,.68Zm1.14-1.35l-.59-.49,.57-.68,.59,.49-.57,.68Z"/>
        <rect class="cls-126" x="528.31" y="499.72" width=".46" height=".77" transform="translate(-194.43 582.42) rotate(-49.91)"/>
      </g>
      <path class="cls-91" d="M550.06,486.98l-.97-17.86c-.95,.21-3.22,.78-4.29,1.74l-.64,.58,.08-12.66h.77s-.07,11.04-.07,11.04c1.67-1.03,4.32-1.51,4.45-1.53l.43-.08,1.02,18.73-.76,.04Z"/>
      <path class="cls-131" d="M567.67,470.14l-.76-.07c.05-.54,.1-1.07,.15-1.58,.25-2.56,.46-4.78,.46-7.19l.08-22.44h.77s-.08,22.44-.08,22.44c0,2.45-.22,4.68-.46,7.26-.05,.51-.1,1.03-.15,1.58Z"/>
      <path class="cls-79" d="M566.38,491.58l-.47-.6c.11-.09,10.95-8.68,20.13-21.12-.56-16.41-.56-19.48-.56-19.51h.77s0,3.12,.57,19.62v.13s-.07,.11-.07,.11c-9.25,12.58-20.24,21.28-20.35,21.37Z"/>
      <text class="cls-59" transform="translate(520.93 520.46)"><tspan x="0" y="0">LIL</tspan><tspan class="cls-189" x="2.33" y="0">A</tspan><tspan x="3.5" y="0">S</tspan></text>
      <text class="cls-2" transform="translate(502.94 540.48)"><tspan x="0" y="0">P</tspan><tspan class="cls-140" x=".83" y="0">L</tspan><tspan class="cls-139" x="1.69" y="0">O</tspan><tspan class="cls-157" x="2.97" y="0">B</tspan><tspan class="cls-117" x="3.95" y="0">S</tspan><tspan x="4.92" y="0">HEIM</tspan></text>
      <path class="cls-63" d="M499.78,541.65c-1.46,0-2.65-1.19-2.65-2.65s1.19-2.65,2.65-2.65,2.65,1.19,2.65,2.65-1.19,2.65-2.65,2.65Zm0-4.96c-1.28,0-2.32,1.04-2.32,2.32s1.04,2.32,2.32,2.32,2.32-1.04,2.32-2.32-1.04-2.32-2.32-2.32Z"/>
      <text class="cls-25" transform="translate(498.63 540.04)"><tspan x="0" y="0">F</tspan></text>
      <text class="cls-49" transform="translate(502.73 541.92)"><tspan x="0" y="0">C</tspan><tspan class="cls-69" x=".48" y="0">A</tspan><tspan x="1" y="0">N</tspan><tspan class="cls-77" x="1.45" y="0">A</tspan><tspan x="1.96" y="0">L </tspan><tspan class="cls-176" x="2.56" y="0">D</tspan><tspan x="2.99" y="0">U </tspan><tspan class="cls-217" x="3.59" y="0">RH</tspan><tspan class="cls-142" x="4.49" y="0">Ô</tspan><tspan class="cls-213" x="5.01" y="0">N</tspan><tspan x="5.47" y="0">E </tspan><tspan class="cls-95" x="6.09" y="0">A</tspan><tspan class="cls-209" x="6.6" y="0">U </tspan><tspan class="cls-217" x="7.19" y="0">R</tspan><tspan x="7.63" y="0">HIN</tspan></text>
      <path class="cls-71" d="M556.38,507.81c-6.33,0-11.48-5.15-11.48-11.48s5.15-11.48,11.48-11.48,11.48,5.15,11.48,11.48-5.15,11.48-11.48,11.48Zm0-22.19c-5.91,0-10.71,4.81-10.71,10.71s4.81,10.71,10.71,10.71,10.71-4.81,10.71-10.71-4.81-10.71-10.71-10.71Z"/>
      <path class="cls-93" d="M556.38,525.01c-3.87,0-7.63-.76-11.16-2.25-3.42-1.44-6.48-3.51-9.12-6.15s-4.7-5.7-6.15-9.12c-1.5-3.54-2.25-7.29-2.25-11.16s.76-7.63,2.25-11.16c1.44-3.42,3.51-6.48,6.15-9.12,2.63-2.63,5.7-4.7,9.12-6.15,3.54-1.5,7.29-2.25,11.16-2.25s7.63,.76,11.16,2.25c3.42,1.44,6.48,3.51,9.12,6.15,2.63,2.63,4.7,5.7,6.15,9.12,1.5,3.54,2.25,7.29,2.25,11.16s-.76,7.63-2.25,11.16c-1.44,3.42-3.51,6.48-6.15,9.12-2.63,2.63-5.7,4.7-9.12,6.15-3.54,1.5-7.29,2.25-11.16,2.25Zm0-56.59c-15.39,0-27.91,12.52-27.91,27.91s12.52,27.91,27.91,27.91,27.91-12.52,27.91-27.91-12.52-27.91-27.91-27.91Z"/>
      <circle class="cls-71" cx="566.37" cy="491.55" r="1.61"/>
      <circle class="cls-71" cx="559.79" cy="486.11" r="1.61"/>
      <circle class="cls-71" cx="550.6" cy="486.57" r="1.61"/>
      <circle class="cls-71" cx="545.54" cy="493.23" r="1.61"/>
      <circle class="cls-71" cx="547.38" cy="502.42" r="1.61"/>
      <circle class="cls-71" cx="557.57" cy="507.02" r="1.61"/>
      <circle class="cls-71" cx="564.69" cy="503.34" r="1.61"/>
      <circle class="cls-71" cx="567.06" cy="498.75" r="1.61"/>
      <circle class="cls-89" cx="540.18" cy="487.49" r="1.61"/>
      <circle class="cls-133" cx="529" cy="487.8" r="1.61"/>
      <circle class="cls-133" cx="528.01" cy="500.13" r="1.61"/>
      <circle class="cls-133" cx="532.37" cy="511" r="1.61"/>
      <circle class="cls-133" cx="534.98" cy="514.52" r="1.61"/>
      <circle class="cls-133" cx="545.93" cy="522.49" r="1.61"/>
      <circle class="cls-133" cx="553.82" cy="524.86" r="1.61"/>
      <circle class="cls-133" cx="526.94" cy="518.05" r="1.61"/>
      <circle class="cls-133" cx="533.75" cy="478.84" r="1.61"/>
      <circle class="cls-133" cx="567.22" cy="470.41" r="1.61"/>
      <circle class="cls-133" cx="578.78" cy="479.3" r="1.61"/>
      <circle class="cls-133" cx="584.68" cy="499.28" r="1.61"/>
      <circle class="cls-133" cx="584.45" cy="492.85" r="1.61"/>
      <circle class="cls-133" cx="549.6" cy="468.5" r="1.46"/>
      <circle class="cls-133" cx="544.47" cy="470.18" r="1.46"/>
      <text class="cls-59" transform="translate(568.94 494.21)"><tspan class="cls-216" x="0" y="0">O</tspan><tspan class="cls-96" x="1.22" y="0">R</tspan><tspan class="cls-141" x="2.28" y="0">A</tspan><tspan class="cls-144" x="3.5" y="0">NG</tspan><tspan class="cls-108" x="5.75" y="0">E</tspan><tspan class="cls-137" x="6.79" y="0">RIE</tspan></text>
      <text class="cls-59" transform="translate(558.06 481.58)"><tspan class="cls-88" x="0" y="0">P</tspan><tspan class="cls-64" x=".6" y="0">A</tspan><tspan class="cls-144" x="1.83" y="0">RL</tspan><tspan class="cls-108" x="3.78" y="0">E</tspan><tspan class="cls-65" x="4.82" y="0">M</tspan><tspan class="cls-108" x="6.28" y="0">E</tspan><tspan x="7.32" y="0">NT</tspan><tspan x="0" y="1.99">E</tspan><tspan class="cls-96" x="1.02" y="1.99">U</tspan><tspan class="cls-98" x="1.99" y="1.99">R</tspan><tspan x="2.93" y="1.99">OP</tspan><tspan class="cls-108" x="4.99" y="1.99">ÉE</tspan><tspan x="7.07" y="1.99">N</tspan></text>
      <text class="cls-59" transform="translate(544.43 484.11)"><tspan class="cls-94" x="0" y="0">W</tspan><tspan class="cls-116" x="1.22" y="0">O</tspan><tspan class="cls-136" x="2.44" y="0">D</tspan><tspan class="cls-137" x="3.49" y="0">LI</tspan></text>
      <text class="cls-59" transform="translate(540.45 496.67)"><tspan class="cls-99" x="0" y="0">S</tspan><tspan class="cls-207" x=".86" y="0">CH</tspan><tspan class="cls-108" x="3.12" y="0">E</tspan><tspan x="4.16" y="0">PP</tspan><tspan class="cls-144" x="5.76" y="0">L</tspan><tspan class="cls-108" x="6.68" y="0">E</tspan><tspan x="7.72" y="0">R</tspan></text>
      <text class="cls-59" transform="translate(538.23 502.33)"><tspan x="0" y="0">HE</tspan><tspan class="cls-96" x="2.15" y="0">Y</tspan><tspan x="3.24" y="0">RITZ</tspan></text>
      <text class="cls-59" transform="translate(552.78 503.23)"><tspan class="cls-108" x="0" y="0">É</tspan><tspan class="cls-201" x="1.04" y="0">T</tspan><tspan class="cls-216" x="2.11" y="0">O</tspan><tspan x="3.33" y="0">I</tspan><tspan class="cls-219" x="3.78" y="0">L</tspan><tspan class="cls-207" x="4.71" y="0">E</tspan><tspan class="cls-129" x="0" y="1.99">B</tspan><tspan class="cls-96" x=".97" y="1.99">OU</tspan><tspan class="cls-166" x="3.22" y="1.99">R</tspan><tspan class="cls-144" x="4.21" y="1.99">S</tspan><tspan x="5.13" y="1.99">E</tspan></text>
      <text class="cls-59" transform="translate(566.49 504.33)"><tspan class="cls-150" x="0" y="0">C</tspan><tspan x="1.13" y="0">I</tspan><tspan class="cls-223" x="1.58" y="0">T</tspan><tspan class="cls-141" x="2.51" y="0">A</tspan><tspan class="cls-136" x="3.73" y="0">D</tspan><tspan class="cls-108" x="4.78" y="0">E</tspan><tspan class="cls-219" x="5.82" y="0">LL</tspan><tspan x="7.67" y="0">E</tspan></text>
      <text class="cls-59" transform="translate(558.52 497.82)"><tspan class="cls-166" x="0" y="0">I</tspan><tspan class="cls-150" x=".39" y="0">S</tspan><tspan class="cls-137" x="1.31" y="0">L</tspan><tspan class="cls-64" x="2.25" y="0">A</tspan><tspan class="cls-65" x="3.48" y="0">N</tspan><tspan class="cls-94" x="4.55" y="0">D</tspan><tspan x="5.59" y="0">E</tspan></text>
      <path class="cls-79" d="M585.83,450.66c-1.46,0-2.65-1.19-2.65-2.65s1.19-2.65,2.65-2.65,2.65,1.19,2.65,2.65-1.19,2.65-2.65,2.65Zm0-4.96c-1.28,0-2.32,1.04-2.32,2.32s1.04,2.32,2.32,2.32,2.32-1.04,2.32-2.32-1.04-2.32-2.32-2.32Z"/>
      <text class="cls-41" transform="translate(584.69 449.05)"><tspan x="0" y="0">B</tspan></text>
      <text class="cls-21" transform="translate(588.7 446.6)"><tspan x="0" y="0">LA </tspan><tspan class="cls-200" x="3.18" y="0">W</tspan><tspan class="cls-124" x="4.5" y="0">A</tspan><tspan x="5.98" y="0">NTZ</tspan><tspan class="cls-184" x="9.7" y="0">E</tspan><tspan x="10.95" y="0">N</tspan><tspan class="cls-114" x="12.21" y="0">A</tspan><tspan x="13.64" y="0">U</tspan></text>
      <path class="cls-75" d="M567.84,439.09c-1.46,0-2.65-1.19-2.65-2.65s1.19-2.65,2.65-2.65,2.65,1.19,2.65,2.65-1.19,2.65-2.65,2.65Zm0-4.96c-1.28,0-2.32,1.04-2.32,2.32s1.04,2.32,2.32,2.32,2.32-1.04,2.32-2.32-1.04-2.32-2.32-2.32Z"/>
      <text class="cls-40" transform="translate(566.69 437.49)"><tspan x="0" y="0">A</tspan></text>
      <text class="cls-14" transform="translate(570.7 435.04)"><tspan x="0" y="0">LA </tspan><tspan class="cls-200" x="3.18" y="0">W</tspan><tspan class="cls-124" x="4.5" y="0">A</tspan><tspan x="5.98" y="0">NTZ</tspan><tspan class="cls-184" x="9.7" y="0">E</tspan><tspan x="10.95" y="0">N</tspan><tspan class="cls-114" x="12.21" y="0">A</tspan><tspan x="13.64" y="0">U</tspan></text>
      <text class="cls-59" transform="translate(547.4 466.3)"><tspan x="0" y="0">MI</tspan><tspan class="cls-138" x="1.88" y="0">T</tspan><tspan class="cls-185" x="3.01" y="0">T</tspan><tspan class="cls-108" x="4.15" y="0">E</tspan><tspan class="cls-144" x="5.19" y="0">L</tspan><tspan x="6.12" y="0">B</tspan><tspan class="cls-108" x="7.08" y="0">E</tspan><tspan class="cls-98" x="8.12" y="0">R</tspan><tspan x="9.06" y="0">G</tspan></text>
      <text class="cls-59" transform="translate(569 469.21)"><tspan class="cls-144" x="0" y="0">L</tspan><tspan x=".93" y="0">E M</tspan><tspan class="cls-141" x="3.83" y="0">A</tspan><tspan class="cls-108" x="5.05" y="0">R</tspan><tspan x="6.11" y="0">A</tspan><tspan class="cls-166" x="7.36" y="0">I</tspan><tspan x="7.75" y="0">S</tspan></text>
      <text class="cls-59" transform="translate(534.01 468.96)"><tspan class="cls-216" x="0" y="0">FO</tspan><tspan x="2.2" y="0">N</tspan><tspan class="cls-223" x="3.24" y="0">T</tspan><tspan x="4.17" y="0">AI</tspan><tspan class="cls-65" x="5.87" y="0">N</tspan><tspan x="6.94" y="0">E</tspan></text>
      <path class="cls-91" d="M544.55,458.8c-1.46,0-2.65-1.19-2.65-2.65s1.19-2.65,2.65-2.65,2.65,1.19,2.65,2.65-1.19,2.65-2.65,2.65Zm0-4.96c-1.28,0-2.32,1.04-2.32,2.32s1.04,2.32,2.32,2.32,2.32-1.04,2.32-2.32-1.04-2.32-2.32-2.32Z"/>
      <text class="cls-36" transform="translate(543.4 457.19)"><tspan x="0" y="0">J</tspan></text>
      <text class="cls-23" transform="translate(534.42 452.64)"><tspan x="0" y="0">MI</tspan><tspan class="cls-161" x="2.27" y="0">T</tspan><tspan class="cls-119" x="3.63" y="0">T</tspan><tspan class="cls-184" x="5.02" y="0">E</tspan><tspan class="cls-191" x="6.27" y="0">L</tspan><tspan x="7.39" y="0">H</tspan><tspan class="cls-114" x="8.75" y="0">AU</tspan><tspan class="cls-134" x="11.25" y="0">S</tspan><tspan x="12.37" y="0">B</tspan><tspan class="cls-184" x="13.53" y="0">E</tspan><tspan class="cls-118" x="14.79" y="0">R</tspan><tspan class="cls-171" x="15.92" y="0">G</tspan><tspan class="cls-184" x="17.39" y="0">E</tspan><tspan x="18.65" y="0">N</tspan></text>
      <text class="cls-29" transform="translate(509.8 469.65)"><tspan class="cls-174" x="0" y="0">K</tspan><tspan class="cls-151" x="1.01" y="0">OL</tspan><tspan class="cls-182" x="3.29" y="0">B</tspan><tspan class="cls-151" x="4.27" y="0">S</tspan><tspan x="5.24" y="0">HEIM</tspan></text>
      <path class="cls-89" d="M513.17,477.43c-1.46,0-2.65-1.19-2.65-2.65s1.19-2.65,2.65-2.65,2.65,1.19,2.65,2.65-1.19,2.65-2.65,2.65Zm0-4.96c-1.28,0-2.32,1.04-2.32,2.32s1.04,2.32,2.32,2.32,2.32-1.04,2.32-2.32-1.04-2.32-2.32-2.32Z"/>
      <text class="cls-16" transform="translate(512.72 475.85)"><tspan x="0" y="0">I</tspan></text>
      <text class="cls-7" transform="translate(510.78 470.82)"><tspan x="0" y="0">C</tspan><tspan class="cls-69" x=".48" y="0">A</tspan><tspan x="1" y="0">N</tspan><tspan class="cls-77" x="1.45" y="0">A</tspan><tspan x="1.96" y="0">L DE LA BRUCHE</tspan></text>
      <text class="cls-59" transform="translate(526.92 477.46)"><tspan class="cls-108" x="0" y="0">É</tspan><tspan class="cls-223" x="1.04" y="0">T</tspan><tspan class="cls-141" x="1.97" y="0">A</tspan><tspan class="cls-150" x="3.19" y="0">N</tspan><tspan x="4.22" y="0">G</tspan></text>
      <text class="cls-59" transform="translate(520.17 486.33)"><tspan x="0" y="0">M</tspan><tspan class="cls-141" x="1.43" y="0">A</tspan><tspan x="2.65" y="0">N</tspan><tspan class="cls-127" x="3.69" y="0">È</tspan><tspan class="cls-144" x="4.66" y="0">G</tspan><tspan x="5.88" y="0">E</tspan></text>
      <text class="cls-27" transform="translate(516.16 496.09)"><tspan x="0" y="0">A</tspan><tspan class="cls-153" x="1.3" y="0">É</tspan><tspan class="cls-173" x="2.39" y="0">R</tspan><tspan x="3.37" y="0">O</tspan><tspan class="cls-103" x="4.7" y="0">P</tspan><tspan class="cls-139" x="5.54" y="0">O</tspan><tspan class="cls-218" x="6.81" y="0">R</tspan><tspan x="7.76" y="0">T</tspan></text>
      <path class="cls-126" d="M511.93,498.87c-1.46,0-2.65-1.19-2.65-2.65s1.19-2.65,2.65-2.65,2.65,1.19,2.65,2.65-1.19,2.65-2.65,2.65Zm0-4.96c-1.28,0-2.32,1.04-2.32,2.32s1.04,2.32,2.32,2.32,2.32-1.04,2.32-2.32-1.04-2.32-2.32-2.32Z"/>
      <text class="cls-52" transform="translate(510.78 497.26)"><tspan x="0" y="0">H</tspan></text>
      <text class="cls-59" transform="translate(520.91 498.4)"><tspan class="cls-98" x="0" y="0">R</tspan><tspan class="cls-116" x=".94" y="0">O</tspan><tspan class="cls-108" x="2.16" y="0">E</tspan><tspan class="cls-207" x="3.2" y="0">T</tspan><tspan class="cls-1" x="4.3" y="0">I</tspan><tspan class="cls-207" x="4.72" y="0">G</tspan></text>
      <text class="cls-59" transform="translate(523.82 510.42)"><tspan x="0" y="0">C</tspan><tspan class="cls-64" x="1.14" y="0">A</tspan><tspan class="cls-166" x="2.36" y="0">RS</tspan><tspan class="cls-82" x="4.22" y="0">A</tspan><tspan x="5.24" y="0">T</tspan></text>
      <text class="cls-19" transform="translate(499.84 508.55)"><tspan x="0" y="0">BL</tspan><tspan class="cls-157" x="1.99" y="0">A</tspan><tspan class="cls-187" x="3.27" y="0">E</tspan><tspan class="cls-151" x="4.25" y="0">S</tspan><tspan x="5.21" y="0">HEIM</tspan></text>
      <path class="cls-120" d="M496.68,509.72c-1.46,0-2.65-1.19-2.65-2.65s1.19-2.65,2.65-2.65,2.65,1.19,2.65,2.65-1.19,2.65-2.65,2.65Zm0-4.96c-1.28,0-2.32,1.04-2.32,2.32s1.04,2.32,2.32,2.32,2.32-1.04,2.32-2.32-1.04-2.32-2.32-2.32Z"/>
      <text class="cls-56" transform="translate(495.52 508.11)"><tspan x="0" y="0">G</tspan></text>
      <text class="cls-59" transform="translate(535.65 525.86)"><tspan class="cls-144" x="0" y="0">R</tspan><tspan class="cls-137" x="1.03" y="0">HIN </tspan><tspan class="cls-201" x="4.09" y="0">T</tspan><tspan class="cls-116" x="5.16" y="0">O</tspan><tspan class="cls-205" x="6.38" y="0">R</tspan><tspan x="7.29" y="0">TU</tspan></text>
      <text class="cls-59" transform="translate(551.07 522.9)"><tspan x="0" y="0">P</tspan><tspan class="cls-212" x=".8" y="0">R</tspan><tspan class="cls-197" x="1.73" y="0">O</tspan><tspan class="cls-150" x="2.93" y="0">V</tspan><tspan class="cls-108" x="3.88" y="0">E</tspan><tspan class="cls-144" x="4.92" y="0">N</tspan><tspan class="cls-207" x="5.95" y="0">CE</tspan></text>
      <path class="cls-111" d="M552.04,539.91c-1.46,0-2.65-1.19-2.65-2.65s1.19-2.65,2.65-2.65,2.65,1.19,2.65,2.65-1.19,2.65-2.65,2.65Zm0-4.96c-1.28,0-2.32,1.04-2.32,2.32s1.04,2.32,2.32,2.32,2.32-1.04,2.32-2.32-1.04-2.32-2.32-2.32Z"/>
      <text class="cls-58" transform="translate(550.89 538.3)"><tspan x="0" y="0">E</tspan></text>
      <text class="cls-18" transform="translate(548.19 542.07)"><tspan class="cls-221" x="0" y="0">S</tspan><tspan class="cls-172" x=".92" y="0">T</tspan><tspan class="cls-221" x="2.03" y="0">O</tspan><tspan x="3.29" y="0">C</tspan><tspan class="cls-76" x="4.49" y="0">K</tspan><tspan class="cls-220" x="5.64" y="0">F</tspan><tspan class="cls-186" x="6.68" y="0">E</tspan><tspan class="cls-151" x="7.77" y="0">L</tspan><tspan x="8.73" y="0">D</tspan></text>
      <text class="cls-59" transform="translate(581.39 479.07)"><tspan class="cls-98" x="0" y="0">R</tspan><tspan class="cls-116" x=".94" y="0">O</tspan><tspan x="2.16" y="0">B</tspan><tspan class="cls-108" x="3.12" y="0">E</tspan><tspan class="cls-205" x="4.16" y="0">R</tspan><tspan class="cls-203" x="5.07" y="0">T</tspan><tspan class="cls-166" x="6.08" y="0">SA</tspan><tspan class="cls-137" x="8.14" y="0">U</tspan></text>
      <text class="cls-59" transform="translate(585.6 491.25)"><tspan x="0" y="0">P</tspan><tspan class="cls-96" x=".8" y="0">E</tspan><tspan class="cls-207" x="1.84" y="0">TIT </tspan><tspan class="cls-219" x="4.93" y="0">R</tspan><tspan x="5.96" y="0">HIN</tspan></text>
      <text class="cls-59" transform="translate(585.75 502.27)"><tspan class="cls-150" x="0" y="0">C</tspan><tspan class="cls-166" x="1.13" y="0">O</tspan><tspan class="cls-137" x="2.33" y="0">O</tspan><tspan class="cls-1" x="3.6" y="0">P</tspan></text>
      <path class="cls-107" d="M604.1,502.24c-1.46,0-2.65-1.19-2.65-2.65s1.19-2.65,2.65-2.65,2.65,1.19,2.65,2.65-1.19,2.65-2.65,2.65Zm0-4.96c-1.28,0-2.32,1.04-2.32,2.32s1.04,2.32,2.32,2.32,2.32-1.04,2.32-2.32-1.04-2.32-2.32-2.32Z"/>
      <text class="cls-15" transform="translate(602.95 500.63)"><tspan x="0" y="0">C</tspan></text>
      <text class="cls-31" transform="translate(607.05 499.04)"><tspan class="cls-105" x="0" y="0">K</tspan><tspan class="cls-184" x="1.33" y="0">E</tspan><tspan x="2.59" y="0">HL</tspan></text>
      <path class="cls-78" d="M589.17,532.82c-1.46,0-2.65-1.19-2.65-2.65s1.19-2.65,2.65-2.65,2.65,1.19,2.65,2.65-1.19,2.65-2.65,2.65Zm0-4.96c-1.28,0-2.32,1.04-2.32,2.32s1.04,2.32,2.32,2.32,2.32-1.04,2.32-2.32-1.04-2.32-2.32-2.32Z"/>
      <text class="cls-13" transform="translate(592.13 529.62)"><tspan class="cls-180" x="0" y="0">P</tspan><tspan class="cls-178" x=".97" y="0">O</tspan><tspan class="cls-145" x="2.45" y="0">R</tspan><tspan x="3.54" y="0">T S</tspan><tspan class="cls-184" x="6.54" y="0">U</tspan><tspan class="cls-188" x="7.71" y="0">D</tspan></text>
      <text class="cls-8" transform="translate(588.32 531.24)"><tspan x="0" y="0">D</tspan></text>
    </g>
    <text class="cls-26" transform="translate(517.57 564.5)"><tspan x="0" y="0">ITIN</tspan><tspan class="cls-125" x="8.76" y="0">ÉR</tspan><tspan x="14.81" y="0">AI</tspan><tspan class="cls-165" x="19.7" y="0">R</tspan><tspan x="22.67" y="0">E</tspan></text>
    <text class="cls-26" transform="translate(576.85 564.34)"><tspan class="cls-102" x="0" y="0">R</tspan><tspan class="cls-148" x="2.7" y="0">O</tspan><tspan x="6.18" y="0">C</tspan><tspan class="cls-208" x="9.47" y="0">A</tspan><tspan class="cls-84" x="13" y="0">D</tspan><tspan x="16.02" y="0">E</tspan></text>
    <text class="cls-11" transform="translate(585.96 579.44)"><tspan class="cls-83" x="0" y="0">R</tspan><tspan class="cls-147" x="2.38" y="0">O</tspan><tspan x="5.45" y="0">C</tspan><tspan class="cls-168" x="8.35" y="0">A</tspan><tspan class="cls-152" x="11.46" y="0">D</tspan><tspan x="14.13" y="0">E 1</tspan></text>
    <text class="cls-34" transform="translate(585.73 590.85)"><tspan class="cls-122" x="0" y="0">R</tspan><tspan class="cls-100" x="2.36" y="0">O</tspan><tspan class="cls-211" x="5.4" y="0">C</tspan><tspan class="cls-68" x="8.28" y="0">A</tspan><tspan class="cls-80" x="11.36" y="0">D</tspan><tspan x="14.01" y="0">E 2</tspan></text>
    <g>
      <path class="cls-71" d="M556.26,494.42c-1.69,0-3.06-1.37-3.06-3.06s1.37-3.06,3.06-3.06,3.06,1.37,3.06,3.06-1.37,3.06-3.06,3.06Zm0-5.83c-1.53,0-2.77,1.24-2.77,2.77s1.24,2.77,2.77,2.77,2.77-1.24,2.77-2.77-1.24-2.77-2.77-2.77Z"/>
      <text class="cls-4" transform="translate(555.28 492.89)"><tspan x="0" y="0">1</tspan></text>
      <g>
        <path class="cls-133" d="M588.75,488.67c-1.79,0-3.24-1.45-3.24-3.24s1.45-3.24,3.24-3.24,3.24,1.45,3.24,3.24-1.45,3.24-3.24,3.24Zm0-6.34c-1.71,0-3.1,1.39-3.1,3.1s1.39,3.1,3.1,3.1,3.1-1.39,3.1-3.1-1.39-3.1-3.1-3.1Z"/>
        <text class="cls-30" transform="translate(587.51 486.97)"><tspan x="0" y="0">2</tspan></text>
      </g>
    </g>
    <g>
      <path class="cls-71" d="M578.33,582.96c-2.69,0-4.89-2.19-4.89-4.89s2.19-4.89,4.89-4.89,4.89,2.19,4.89,4.89-2.19,4.89-4.89,4.89Zm0-9.48c-2.53,0-4.59,2.06-4.59,4.59s2.06,4.59,4.59,4.59,4.59-2.06,4.59-4.59-2.06-4.59-4.59-4.59Z"/>
      <text class="cls-37" transform="translate(576.73 580.57)"><tspan x="0" y="0">1</tspan></text>
    </g>
    <g>
      <path class="cls-133" d="M578.4,594.72c-2.59,0-4.69-2.1-4.69-4.69s2.1-4.69,4.69-4.69,4.69,2.1,4.69,4.69-2.1,4.69-4.69,4.69Zm0-9.24c-2.51,0-4.54,2.04-4.54,4.54s2.04,4.54,4.54,4.54,4.54-2.04,4.54-4.54-2.04-4.54-4.54-4.54Z"/>
      <text class="cls-48" transform="translate(576.6 592.28)"><tspan x="0" y="0">2</tspan></text>
    </g>
    <g>
      <path class="cls-63" d="M536.09,576.47c-1.4,0-2.54-1.14-2.54-2.54s1.14-2.54,2.54-2.54,2.54,1.14,2.54,2.54-1.14,2.54-2.54,2.54Zm0-4.77c-1.23,0-2.23,1-2.23,2.23s1,2.23,2.23,2.23,2.23-1,2.23-2.23-1-2.23-2.23-2.23Z"/>
      <text class="cls-33" transform="translate(534.99 574.93)"><tspan x="0" y="0">F</tspan></text>
    </g>
    <g>
      <path class="cls-79" d="M497.68,582.69c-1.4,0-2.54-1.14-2.54-2.54s1.14-2.54,2.54-2.54,2.54,1.14,2.54,2.54-1.14,2.54-2.54,2.54Zm0-4.77c-1.23,0-2.23,1-2.23,2.23s1,2.23,2.23,2.23,2.23-1,2.23-2.23-1-2.23-2.23-2.23Z"/>
      <text class="cls-6" transform="translate(496.57 581.14)"><tspan x="0" y="0">B</tspan></text>
    </g>
    <g>
      <path class="cls-75" d="M497.68,575.45c-1.4,0-2.54-1.14-2.54-2.54s1.14-2.54,2.54-2.54,2.54,1.14,2.54,2.54-1.14,2.54-2.54,2.54Zm0-4.77c-1.23,0-2.23,1-2.23,2.23s1,2.23,2.23,2.23,2.23-1,2.23-2.23-1-2.23-2.23-2.23Z"/>
      <text class="cls-22" transform="translate(496.57 573.9)"><tspan x="0" y="0">A</tspan></text>
    </g>
    <g>
      <path class="cls-126" d="M536.09,590.72c-1.4,0-2.54-1.14-2.54-2.54s1.14-2.54,2.54-2.54,2.54,1.14,2.54,2.54-1.14,2.54-2.54,2.54Zm0-4.77c-1.23,0-2.23,1-2.23,2.23s1,2.23,2.23,2.23,2.23-1,2.23-2.23-1-2.23-2.23-2.23Z"/>
      <text class="cls-62" transform="translate(534.99 589.18)"><tspan x="0" y="0">H</tspan></text>
    </g>
    <g>
      <path class="cls-120" d="M536.09,583.65c-1.4,0-2.54-1.14-2.54-2.54s1.14-2.54,2.54-2.54,2.54,1.14,2.54,2.54-1.14,2.54-2.54,2.54Zm0-4.77c-1.23,0-2.23,1-2.23,2.23s1,2.23,2.23,2.23,2.23-1,2.23-2.23-1-2.23-2.23-2.23Z"/>
      <text class="cls-53" transform="translate(534.99 582.11)"><tspan x="0" y="0">G</tspan></text>
    </g>
    <g>
      <path class="cls-111" d="M497.68,604.41c-1.4,0-2.54-1.14-2.54-2.54s1.14-2.54,2.54-2.54,2.54,1.14,2.54,2.54-1.14,2.54-2.54,2.54Zm0-4.77c-1.23,0-2.23,1-2.23,2.23s1,2.23,2.23,2.23,2.23-1,2.23-2.23-1-2.23-2.23-2.23Z"/>
      <text class="cls-50" transform="translate(496.57 602.86)"><tspan x="0" y="0">E</tspan></text>
    </g>
    <g>
      <path class="cls-107" d="M497.68,589.93c-1.4,0-2.54-1.14-2.54-2.54s1.14-2.54,2.54-2.54,2.54,1.14,2.54,2.54-1.14,2.54-2.54,2.54Zm0-4.77c-1.23,0-2.23,1-2.23,2.23s1,2.23,2.23,2.23,2.23-1,2.23-2.23-1-2.23-2.23-2.23Z"/>
      <text class="cls-47" transform="translate(496.57 588.38)"><tspan x="0" y="0">C</tspan></text>
    </g>
    <g>
      <path class="cls-78" d="M497.68,597.17c-1.4,0-2.54-1.14-2.54-2.54s1.14-2.54,2.54-2.54,2.54,1.14,2.54,2.54-1.14,2.54-2.54,2.54Zm0-4.77c-1.23,0-2.23,1-2.23,2.23s1,2.23,2.23,2.23,2.23-1,2.23-2.23-1-2.23-2.23-2.23Z"/>
      <text class="cls-42" transform="translate(496.86 595.65)"><tspan x="0" y="0">D</tspan></text>
    </g>
    <g>
      <path class="cls-89" d="M536.09,597.79c-1.4,0-2.54-1.14-2.54-2.54s1.14-2.54,2.54-2.54,2.54,1.14,2.54,2.54-1.14,2.54-2.54,2.54Zm0-4.77c-1.23,0-2.23,1-2.23,2.23s1,2.23,2.23,2.23,2.23-1,2.23-2.23-1-2.23-2.23-2.23Z"/>
      <text class="cls-45" transform="translate(535.67 596.27)"><tspan x="0" y="0">I</tspan></text>
    </g>
    <g>
      <path class="cls-91" d="M536.09,604.85c-1.4,0-2.54-1.14-2.54-2.54s1.14-2.54,2.54-2.54,2.54,1.14,2.54,2.54-1.14,2.54-2.54,2.54Zm0-4.77c-1.23,0-2.23,1-2.23,2.23s1,2.23,2.23,2.23,2.23-1,2.23-2.23-1-2.23-2.23-2.23Z"/>
      <text class="cls-60" transform="translate(534.99 603.31)"><tspan x="0" y="0">J</tspan></text>
    </g>
    <text class="cls-9" transform="translate(501.96 580.91)"><tspan x="0" y="0">LA </tspan><tspan class="cls-87" x="3.8" y="0">W</tspan><tspan class="cls-208" x="5.37" y="0">A</tspan><tspan x="7.14" y="0">NTZ</tspan><tspan class="cls-198" x="11.58" y="0">E</tspan><tspan class="cls-195" x="13.07" y="0">N</tspan><tspan class="cls-206" x="14.57" y="0">A</tspan><tspan x="16.28" y="0">U</tspan></text>
    <g>
      <text class="cls-54" transform="translate(502.32 574.43)"><tspan x="0" y="0">C</tspan><tspan class="cls-155" x=".6" y="0">A</tspan><tspan x="1.25" y="0">N</tspan><tspan class="cls-177" x="1.8" y="0">A</tspan><tspan class="cls-123" x="2.45" y="0">L </tspan><tspan class="cls-149" x="3.18" y="0">DE </tspan><tspan class="cls-123" x="4.52" y="0" xml:space="preserve">LA  M</tspan><tspan class="cls-177" x="6.91" y="0">AR</tspan><tspan class="cls-156" x="8.1" y="0">N</tspan><tspan x="8.67" y="0">E </tspan><tspan class="cls-163" x="9.45" y="0">A</tspan><tspan class="cls-123" x="10.08" y="0">U </tspan><tspan class="cls-192" x="10.82" y="0">R</tspan><tspan class="cls-123" x="11.36" y="0">HIN</tspan></text>
      <text class="cls-61" transform="translate(501.96 573.05)"><tspan class="cls-143" x="0" y="0">E</tspan><tspan x="1.39" y="0">CK</tspan><tspan class="cls-198" x="4.53" y="0">WE</tspan><tspan class="cls-143" x="7.82" y="0">R</tspan><tspan class="cls-167" x="9.24" y="0">S</tspan><tspan x="10.57" y="0">HEIM</tspan></text>
    </g>
    <text class="cls-51" transform="translate(501.96 588.16)"><tspan class="cls-115" x="0" y="0">K</tspan><tspan class="cls-104" x="1.59" y="0">E</tspan><tspan x="3.09" y="0">HL</tspan></text>
    <text class="cls-17" transform="translate(502.05 602.64)"><tspan class="cls-206" x="0" y="0">S</tspan><tspan class="cls-113" x="1.26" y="0">T</tspan><tspan class="cls-143" x="2.8" y="0">O</tspan><tspan x="4.54" y="0">C</tspan><tspan class="cls-115" x="6.19" y="0">K</tspan><tspan class="cls-73" x="7.77" y="0">F</tspan><tspan class="cls-198" x="9.21" y="0">E</tspan><tspan class="cls-67" x="10.71" y="0">L</tspan><tspan class="cls-101" x="12.04" y="0">D</tspan></text>
    <text class="cls-5" transform="translate(501.96 595.4)"><tspan class="cls-183" x="0" y="0">P</tspan><tspan class="cls-202" x="1.16" y="0">O</tspan><tspan class="cls-170" x="2.92" y="0">R</tspan><tspan x="4.23" y="0">T S</tspan><tspan class="cls-198" x="7.81" y="0">U</tspan><tspan class="cls-101" x="9.21" y="0">D</tspan></text>
    <g>
      <text class="cls-10" transform="translate(540.48 574.21)"><tspan x="0" y="0">P</tspan><tspan class="cls-159" x="1.15" y="0">L</tspan><tspan class="cls-202" x="2.33" y="0">O</tspan><tspan class="cls-106" x="4.09" y="0">B</tspan><tspan class="cls-167" x="5.45" y="0">S</tspan><tspan x="6.78" y="0">HEIM</tspan></text>
      <text class="cls-20" transform="translate(540.57 575.37)"><tspan x="0" y="0">C</tspan><tspan class="cls-72" x=".47" y="0">A</tspan><tspan class="cls-214" x=".96" y="0">N</tspan><tspan class="cls-72" x="1.39" y="0">A</tspan><tspan x="1.89" y="0">L </tspan><tspan class="cls-181" x="2.46" y="0">D</tspan><tspan x="2.88" y="0">U </tspan><tspan class="cls-199" x="3.45" y="0">RH</tspan><tspan class="cls-121" x="4.32" y="0">Ô</tspan><tspan class="cls-146" x="4.82" y="0">N</tspan><tspan x="5.25" y="0">E </tspan><tspan class="cls-224" x="5.86" y="0">A</tspan><tspan x="6.34" y="0">U </tspan><tspan class="cls-162" x="6.91" y="0">R</tspan><tspan x="7.33" y="0">HIN</tspan></text>
    </g>
    <text class="cls-39" transform="translate(540.37 581.89)"><tspan x="0" y="0">BL</tspan><tspan class="cls-208" x="2.75" y="0">A</tspan><tspan class="cls-210" x="4.51" y="0">E</tspan><tspan class="cls-167" x="5.86" y="0">S</tspan><tspan x="7.18" y="0">HEIM</tspan></text>
    <text class="cls-24" transform="translate(540.39 589.25)"><tspan x="0" y="0">A</tspan><tspan class="cls-198" x="1.79" y="0">É</tspan><tspan class="cls-128" x="3.29" y="0">R</tspan><tspan x="4.65" y="0">O</tspan><tspan class="cls-183" x="6.47" y="0">P</tspan><tspan class="cls-202" x="7.63" y="0">O</tspan><tspan class="cls-170" x="9.39" y="0">R</tspan><tspan x="10.7" y="0">T</tspan></text>
    <g>
      <text class="cls-55" transform="translate(540.64 595.23)"><tspan class="cls-85" x="0" y="0">K</tspan><tspan class="cls-167" x="1.39" y="0">OL</tspan><tspan class="cls-106" x="4.53" y="0">B</tspan><tspan class="cls-167" x="5.89" y="0">S</tspan><tspan x="7.22" y="0">HEIM</tspan></text>
      <text class="cls-43" transform="translate(540.48 596.92)"><tspan x="0" y="0">C</tspan><tspan class="cls-193" x=".64" y="0">A</tspan><tspan x="1.33" y="0">N</tspan><tspan class="cls-190" x="1.91" y="0">A</tspan><tspan x="2.6" y="0">L DE LA BRUCHE</tspan></text>
    </g>
    <text class="cls-28" transform="translate(540.39 602.93)"><tspan x="0" y="0">MI</tspan><tspan class="cls-179" x="2.18" y="0">T</tspan><tspan class="cls-74" x="3.49" y="0">T</tspan><tspan class="cls-158" x="4.82" y="0">E</tspan><tspan class="cls-175" x="6.03" y="0">L</tspan><tspan x="7.1" y="0">H</tspan><tspan class="cls-194" x="8.41" y="0">AU</tspan><tspan class="cls-169" x="10.81" y="0">S</tspan><tspan x="11.88" y="0">B</tspan><tspan class="cls-158" x="13" y="0">E</tspan><tspan class="cls-222" x="14.21" y="0">R</tspan><tspan class="cls-175" x="15.3" y="0">G</tspan><tspan class="cls-164" x="16.71" y="0">E</tspan><tspan x="17.92" y="0">N</tspan></text>
    <rect class="cls-93" x="517.29" y="566.15" width="25.83" height=".44"/>
    <rect class="cls-93" x="576.98" y="566.15" width="19.06" height=".44"/>
  </g>
  <g>
    <path class="cls-120" d="M104.33,385.33h231.61s0-75.33,0-75.33H104.33s-58.41,29.46-58.41,29.46c-4.85,2.45-5.04,9.3-.33,12.01l58.74,33.85Z"/>
    <rect class="cls-66" x="115.05" y="313.96" width="216.84" height="65.75" transform="translate(446.95 693.66) rotate(-180)"/>
    <circle class="cls-120" cx="323.59" cy="371.4" r="11.73"/>
    <g>
      <path class="cls-93" d="M71.53,357.53c-4.42-.16-7.88-3.89-7.71-8.31,.16-4.42,3.89-7.88,8.31-7.71s7.88,3.89,7.71,8.31c-.16,4.42-3.89,7.88-8.31,7.71Zm.54-14.42c-3.53-.13-6.52,2.64-6.65,6.17s2.64,6.52,6.17,6.65,6.52-2.64,6.65-6.17-2.64-6.52-6.17-6.65Z"/>
      <path class="cls-93" d="M90.94,357.99c-4.42-.16-7.88-3.89-7.71-8.31,.16-4.42,3.89-7.88,8.31-7.71s7.88,3.89,7.71,8.31-3.89,7.88-8.31,7.71Zm.54-14.42c-3.53-.13-6.52,2.64-6.65,6.17s2.64,6.52,6.17,6.65,6.52-2.64,6.65-6.17-2.64-6.52-6.17-6.65Z"/>
      <path class="cls-93" d="M90.94,357.99c-4.42-.16-7.88-3.89-7.71-8.31,.16-4.42,3.89-7.88,8.31-7.71s7.88,3.89,7.71,8.31-3.89,7.88-8.31,7.71Zm.54-14.42c-3.53-.13-6.52,2.64-6.65,6.17s2.64,6.52,6.17,6.65,6.52-2.64,6.65-6.17-2.64-6.52-6.17-6.65Z"/>
      <path class="cls-93" d="M72.34,352.02l-1.6-.06,.35-9.41c.01-.29,0-.63,0-.99-.03-2.49-.07-7.12,5.42-7.44h.08s9.16,.34,9.16,.34l-.06,1.6-9.12-.34c-3.63,.22-3.9,2.66-3.87,5.82,0,.38,0,.74,0,1.07l-.35,9.41Z"/>
      <path class="cls-93" d="M90.56,350.91c-.17-4.57-2.91-7.83-8.16-9.68-4.04-1.42-8.06-1.43-8.1-1.43v-1.6c.17,0,4.34,.01,8.64,1.52,5.85,2.06,9.04,5.91,9.23,11.13l-1.6,.06Z"/>
    </g>
    <text class="cls-35" transform="translate(181.17 355.83)"><tspan x="0" y="0">B</tspan><tspan class="cls-215" x="14.3" y="0">l</tspan><tspan class="cls-110" x="20.5" y="0">e</tspan><tspan class="cls-135" x="33.76" y="0">sh</tspan><tspan class="cls-204" x="57.7" y="0">e</tspan><tspan x="70.5" y="0">im</tspan></text>
    <g>
      <line class="cls-93" x1="95.8" y1="339.62" x2="106.7" y2="339.62"/>
      <rect class="cls-93" x="95.8" y="339.27" width="10.9" height=".7"/>
    </g>
    <g>
      <line class="cls-93" x1="101.34" y1="347" x2="112.24" y2="347"/>
      <rect class="cls-93" x="101.34" y="346.65" width="10.9" height=".7"/>
    </g>
    <g>
      <line class="cls-93" x1="99.23" y1="343.23" x2="110.13" y2="343.23"/>
      <rect class="cls-93" x="99.23" y="342.87" width="10.9" height=".7"/>
    </g>
    <text class="cls-12" transform="translate(315.73 378.65)"><tspan x="0" y="0">G</tspan></text>
    <g>
      <path class="cls-93" d="M344.44,483.91H116.89v-74.01h227.55l57.39,28.95c4.76,2.4,4.95,9.14,.33,11.8l-57.71,33.26Z"/>
      <rect class="cls-66" x="120.86" y="413.79" width="213.04" height="64.6"/>
      <g>
        <path class="cls-66" d="M368.5,449.02c-.16-4.34,3.24-8,7.58-8.17s8,3.24,8.17,7.58c.16,4.34-3.24,8-7.58,8.17s-8-3.24-8.17-7.58Zm1.57-.06c.13,3.47,3.06,6.19,6.53,6.06s6.19-3.06,6.06-6.53c-.13-3.47-3.06-6.19-6.53-6.06s-6.19,3.06-6.06,6.53Z"/>
        <path class="cls-66" d="M349.43,449.48c-.16-4.34,3.24-8,7.58-8.17,4.34-.16,8,3.24,8.17,7.58s-3.24,8-7.58,8.17-8-3.24-8.17-7.58Zm1.57-.06c.13,3.47,3.06,6.19,6.53,6.06,3.47-.13,6.19-3.06,6.06-6.53s-3.06-6.19-6.53-6.06c-3.47,.13-6.19,3.06-6.06,6.53Z"/>
        <path class="cls-66" d="M349.43,449.48c-.16-4.34,3.24-8,7.58-8.17,4.34-.16,8,3.24,8.17,7.58s-3.24,8-7.58,8.17-8-3.24-8.17-7.58Zm1.57-.06c.13,3.47,3.06,6.19,6.53,6.06,3.47-.13,6.19-3.06,6.06-6.53s-3.06-6.19-6.53-6.06c-3.47,.13-6.19,3.06-6.06,6.53Z"/>
        <path class="cls-66" d="M375.86,451.19l1.57-.06-.34-9.25c-.01-.28,0-.62,0-.97,.03-2.45,.07-7-5.32-7.31h-.07s-9,.33-9,.33l.06,1.57,8.96-.33c3.57,.22,3.83,2.61,3.8,5.71,0,.37,0,.73,0,1.05l.34,9.25Z"/>
        <path class="cls-66" d="M357.97,450.09c.16-4.49,2.86-7.69,8.02-9.51,3.97-1.4,7.92-1.41,7.96-1.41v-1.58c-.17,0-4.27,.01-8.49,1.5-5.75,2.02-8.88,5.81-9.07,10.94l1.57,.06Z"/>
      </g>
      <text class="cls-32" transform="translate(138.09 455.57)"><tspan x="0" y="0">P</tspan><tspan class="cls-154" x="15.38" y="0">l</tspan><tspan class="cls-90" x="23.45" y="0">a</tspan><tspan class="cls-81" x="39.66" y="0">c</tspan><tspan x="57.35" y="0">e K</tspan><tspan class="cls-196" x="103.1" y="0">l</tspan><tspan x="111.17" y="0">é</tspan><tspan class="cls-132" x="128.15" y="0">be</tspan><tspan x="163.4" y="0">r</tspan></text>
      <rect class="cls-66" x="342.11" y="438.66" width="10.71" height=".69"/>
      <rect class="cls-66" x="336.67" y="445.91" width="10.71" height=".69"/>
      <rect class="cls-66" x="338.74" y="442.2" width="10.71" height=".69"/>
    </g>
    <rect class="cls-93" x="212.4" y="478.83" width="5.27" height="263.08"/>
    <rect class="cls-93" x="212.4" y="385.23" width="5.27" height="25.23"/>
  </g>
  <path class="cls-93" d="M968.14,668.17c-5.94-51.45-53.43-51.45-53.43-51.45h-21.77c-27.7,0-43.53,23.75-43.53,23.75l-13.85-11.87,13.85-47.49c11.87,0,19.79-7.92,19.79-7.92v-7.92l-1.98-1.98v-5.94l11.87-7.92v-31.66l-43.53-31.66h-9.89l-5.94-3.96h-7.92l-13.85-15.83,1.98-5.94-9.89-1.98c7.92-5.94,7.92-13.85,7.92-13.85,0-13.85-15.83-17.81-15.83-17.81,0,0-7.92-3.96-19.79-1.98-11.87,1.98-27.7,21.77-27.7,21.77,13.85,0,11.87,7.92,11.87,7.92-3.96,3.96-3.96,9.89-3.96,9.89h3.96l3.96,11.87,15.83,3.96v3.96l-7.92,7.92,3.96,5.94,1.98,37.6-29.68,19.79c-25.72,0-21.77,5.94-21.77,5.94,0,0,0,9.89,3.96,3.96s17.81,0,17.81,0c-5.94,3.96-1.98,9.89-1.98,9.89l23.75-17.81,1.98,1.98-19.79,23.75-15.83,1.98s-25.72-23.75-25.72-17.81,25.72,37.6,25.72,37.6l-13.85,25.72c-.43-.1-.87-.2-1.33-.28-25.33-5.07-52.1,12.15-52.1,12.15,0,0-37.6,21.77-33.64,67.28,3.96,45.51,55.41,47.49,55.41,47.49,0,0,17.81,1.98,35.62-7.92,17.81-9.89,37.6-25.72,41.56-63.32,3.96-37.6-33.64-49.47-33.64-49.47l7.92-21.77,47.49,47.49-17.81,17.81,23.75,9.89s3.96,51.45-1.98,51.45-33.64,17.81-33.64,17.81c0,0,0,1.98,7.92,5.94,7.92,3.96,17.81,0,17.81,0h11.87c3.96,3.96,15.83,0,15.83,0,7.92-9.89-1.98-17.81-1.98-17.81-1.98-13.85,9.89-33.64,9.89-33.64h13.85l7.92-9.89h7.92c0,27.7,47.49,41.56,47.49,41.56h27.7s61.34-25.72,55.41-77.17Zm-227.56-67.28l33.64-25.72-3.96,37.6-35.62-11.87h5.94Zm-9.89,7.92l39.58,9.89s-3.96,15.83,1.98,23.75,5.94,11.87,5.94,11.87l-47.49-45.51Zm104.88-15.83v-17.81l7.92,1.98-13.85,49.47-11.87-5.94,17.81-27.7Zm-19.79,89.05s-1.98,5.94-5.94-3.96c-3.96-9.89,7.92-47.49,7.92-47.49l9.89,1.98-11.87,49.47Zm15.83,1.98l-9.89-9.89,11.87-37.6,13.85,9.89c-13.85,11.87-15.83,37.6-15.83,37.6Z"/>
  <line class="cls-92" y1="743.28" x2="1000" y2="743.28"/>
</svg>